<?xml version="1.0" encoding="UTF-8" standalone="no"?>
<svg
   version="1.1"
   x="0"  y="0" width="400" viewBox="5 6 33 12.5"
   xmlns="http://www.w3.org/2000/svg">
  <defs>
    <g style="stroke-width:0.3" id="ruFSM">
      <path d="m 10.44, 9.38 v 5.25 c 0, 0.82 0.09, 1.45 0.26, 1.88 0.18, 0.43 0.44, 0.77 0.80, 1 0.35, 0.23 0.76, 0.35 1.20, 0.35 0.44, 0 0.87, -0.12 1.27, -0.38 0.41, -0.26 0.73, -0.61 0.98, -1.05 v 1.24 h 1.67 V 9.38 h -2.27 l 0.07, 3.26 c 0.02, 1.12 0.02, 1.39 -0.25, 2.00 -0.23, 0.52 -0.66, 1.26 -1.11, 1.30 -0.39, 0.03 -0.68, -0.38 -0.74, -0.67 -0.05, -0.30 -0.08, -0.99 -0.08, -2.08 V 9.38 Z"/>
      <path d="M 7.55, 10.05 7.56, 9.40 H 5.57 v 8.30 h 2.12 v -2.56 c 0, -1.30 -0.04, -2.57 0.13, -3.04 0.16, -0.45 0.29, -0.51 0.48, -0.69 0.44, -0.31 0.84, -0.08 1.67, 0.26 L 9.98, 9.63 C 9.42, 9.35 8.29, 9.33 7.55, 10.05 Z"/>
      <path d="M 17.15, 6.30 V 17.77 h 1.75 v -4.87 h 1.84 c -0.51, 2.48 0.37, 4.09 2.65, 4.83 1.30, 0.42 2.35, 0.42 3.16, -0.01 0.82, -0.43 1.37, -1.11 1.67, -2.03 0.21, -0.64 0.27, -1.22 0.20, -1.73 -0.08, -0.52 -0.28, -0.99 -0.62, -1.41 C 27.47, 12.12 26.88, 11.63 26.01, 11.06 25.19, 10.53 24.69, 10.13 24.51, 9.85 24.32, 9.57 24.28, 9.29 24.37, 9.00 c 0.10, -0.29 0.31, -0.50 0.65, -0.61 0.34, -0.11 0.76, -0.08 1.27, 0.08 0.51, 0.17 0.86, 0.41 1.06, 0.72 0.20, 0.32 0.25, 0.77 0.15, 1.37 l 1.43, 0.39 v 6.92 h 1.66 V 8.85 l 1.75, 9.02 h 1.72 l 1.76, -9.02 v 9.02 h 1.66 V 6.41 H 34.80 L 33.21, 14.23 31.60, 6.41 H 28.93 V 7.97 C 28.48, 7.42 27.81, 7.00 26.92, 6.71 26.19, 6.48 25.53, 6.40 24.96, 6.47 24.38, 6.55 23.88, 6.77 23.44, 7.14 23.32, 7.24 23.22, 7.35 23.12, 7.47 V 6.30 Z m 1.75, 1.94 h 3.74 c -0.05, 0.11 -0.09, 0.21 -0.13, 0.33 -0.16, 0.50 -0.21, 1.00 -0.13, 1.51 0.08, 0.50 0.27, 0.95 0.55, 1.33 0.29, 0.39 0.80, 0.83 1.53, 1.31 0.81, 0.55 1.32, 0.91 1.52, 1.10 0.20, 0.18 0.33, 0.38 0.39, 0.58 0.06, 0.21 0.05, 0.43 -0.03, 0.67 -0.13, 0.41 -0.41, 0.70 -0.83, 0.88 -0.42, 0.17 -0.91, 0.16 -1.48, -0.03 -1.15, -0.37 -1.91, -1.22 -1.49, -3.03 0.01, -0.56 -0.00, -1.94 -0.00, -1.94 h -3.64 z"/>
    </g>
  </defs>
  <use href="#ruFSM"  stroke="#aaaaaa" fill="#444444" />
</svg>
